<svg width="191" height="17" viewBox="0 0 191 17" fill="none" xmlns="http://www.w3.org/2000/svg">
<path d="M9.06396 8.014C9.73863 8.366 10.2666 8.85733 10.648 9.488C11.0293 10.104 11.22 10.808 11.22 11.6C11.22 12.8613 10.7726 13.91 9.87796 14.746C8.9833 15.582 7.89063 16 6.59996 16H-3.90559e-05V0.599999H6.11596C7.37729 0.599999 8.44063 1.01067 9.30596 1.832C10.186 2.65333 10.626 3.66533 10.626 4.868C10.626 6.188 10.1053 7.23667 9.06396 8.014ZM6.11596 2.976H2.52996V7.024H6.11596C6.67329 7.024 7.14263 6.83333 7.52396 6.452C7.90529 6.056 8.09596 5.572 8.09596 5C8.09596 4.428 7.90529 3.95133 7.52396 3.57C7.14263 3.174 6.67329 2.976 6.11596 2.976ZM2.52996 13.624H6.59996C7.18663 13.624 7.67796 13.4187 8.07396 13.008C8.48463 12.5827 8.68996 12.0693 8.68996 11.468C8.68996 10.8667 8.48463 10.3607 8.07396 9.95C7.67796 9.52467 7.18663 9.312 6.59996 9.312H2.52996V13.624ZM26.1877 16H23.4597L22.3817 12.898H15.8257L14.7477 16H11.9977L17.5857 0.599999H20.6217L26.1877 16ZM19.1037 3.57L16.6617 10.522H21.5457L19.1037 3.57ZM39.3937 16H36.6217L33.3657 10.39H30.3737V16H27.8437V0.599999H34.0037C35.3824 0.599999 36.5484 1.084 37.5017 2.052C38.4697 2.99067 38.9537 4.15667 38.9537 5.55C38.9537 6.53267 38.6677 7.43467 38.0957 8.256C37.5384 9.06267 36.805 9.64933 35.8957 10.016L39.3937 16ZM34.0037 2.976H30.3737V8.124H34.0037C34.6784 8.124 35.2504 7.87467 35.7197 7.376C36.189 6.87733 36.4237 6.26867 36.4237 5.55C36.4237 4.83133 36.189 4.22267 35.7197 3.724C35.2504 3.22533 34.6784 2.976 34.0037 2.976ZM50.3999 8.014C51.0746 8.366 51.6026 8.85733 51.9839 9.488C52.3652 10.104 52.5559 10.808 52.5559 11.6C52.5559 12.8613 52.1086 13.91 51.2139 14.746C50.3192 15.582 49.2266 16 47.9359 16H41.3359V0.599999H47.4519C48.7132 0.599999 49.7766 1.01067 50.6419 1.832C51.5219 2.65333 51.9619 3.66533 51.9619 4.868C51.9619 6.188 51.4412 7.23667 50.3999 8.014ZM47.4519 2.976H43.8659V7.024H47.4519C48.0092 7.024 48.4786 6.83333 48.8599 6.452C49.2412 6.056 49.4319 5.572 49.4319 5C49.4319 4.428 49.2412 3.95133 48.8599 3.57C48.4786 3.174 48.0092 2.976 47.4519 2.976ZM43.8659 13.624H47.9359C48.5226 13.624 49.0139 13.4187 49.4099 13.008C49.8206 12.5827 50.0259 12.0693 50.0259 11.468C50.0259 10.8667 49.8206 10.3607 49.4099 9.95C49.0139 9.52467 48.5226 9.312 47.9359 9.312H43.8659V13.624ZM67.5236 16H64.7956L63.7176 12.898H57.1616L56.0836 16H53.3336L58.9216 0.599999H61.9576L67.5236 16ZM60.4396 3.57L57.9976 10.522H62.8816L60.4396 3.57ZM80.7296 16H77.9576L74.7016 10.39H71.7096V16H69.1796V0.599999H75.3396C76.7183 0.599999 77.8843 1.084 78.8376 2.052C79.8056 2.99067 80.2896 4.15667 80.2896 5.55C80.2896 6.53267 80.0036 7.43467 79.4316 8.256C78.8743 9.06267 78.141 9.64933 77.2316 10.016L80.7296 16ZM75.3396 2.976H71.7096V8.124H75.3396C76.0143 8.124 76.5863 7.87467 77.0556 7.376C77.525 6.87733 77.7596 6.26867 77.7596 5.55C77.7596 4.83133 77.525 4.22267 77.0556 3.724C76.5863 3.22533 76.0143 2.976 75.3396 2.976ZM91.6918 0.599999V3.02H85.2018V7.332H91.4718V9.752H85.2018V16H82.6718V0.599999H91.6918ZM106.929 13.976C105.389 15.516 103.504 16.286 101.275 16.286C99.0452 16.286 97.1532 15.516 95.5986 13.976C94.0586 12.4213 93.2886 10.5293 93.2886 8.3C93.2886 6.07067 94.0586 4.186 95.5986 2.646C97.1532 1.09133 99.0452 0.313999 101.275 0.313999C103.504 0.313999 105.389 1.09133 106.929 2.646C108.483 4.186 109.261 6.07067 109.261 8.3C109.261 10.5293 108.483 12.4213 106.929 13.976ZM97.3806 12.26C98.4512 13.3013 99.7492 13.822 101.275 13.822C102.815 13.822 104.105 13.3013 105.147 12.26C106.203 11.204 106.731 9.884 106.731 8.3C106.731 6.716 106.203 5.40333 105.147 4.362C104.105 3.306 102.815 2.778 101.275 2.778C99.7346 2.778 98.4366 3.306 97.3806 4.362C96.3392 5.40333 95.8186 6.716 95.8186 8.3C95.8186 9.86933 96.3392 11.1893 97.3806 12.26ZM124.438 13.976C122.898 15.516 121.014 16.286 118.784 16.286C116.555 16.286 114.663 15.516 113.108 13.976C111.568 12.4213 110.798 10.5293 110.798 8.3C110.798 6.07067 111.568 4.186 113.108 2.646C114.663 1.09133 116.555 0.313999 118.784 0.313999C121.014 0.313999 122.898 1.09133 124.438 2.646C125.993 4.186 126.77 6.07067 126.77 8.3C126.77 10.5293 125.993 12.4213 124.438 13.976ZM114.89 12.26C115.961 13.3013 117.259 13.822 118.784 13.822C120.324 13.822 121.615 13.3013 122.656 12.26C123.712 11.204 124.24 9.884 124.24 8.3C124.24 6.716 123.712 5.40333 122.656 4.362C121.615 3.306 120.324 2.778 118.784 2.778C117.244 2.778 115.946 3.306 114.89 4.362C113.849 5.40333 113.328 6.716 113.328 8.3C113.328 9.86933 113.849 11.1893 114.89 12.26ZM129.078 0.599999H135.128C137.24 0.599999 138.993 1.34067 140.386 2.822C141.794 4.30333 142.498 6.12933 142.498 8.3C142.498 10.456 141.794 12.282 140.386 13.778C138.993 15.2593 137.24 16 135.128 16H129.078V0.599999ZM131.608 13.58H135.128C136.58 13.58 137.761 13.0813 138.67 12.084C139.594 11.0867 140.056 9.82533 140.056 8.3C140.056 6.77467 139.594 5.51333 138.67 4.516C137.761 3.51867 136.58 3.02 135.128 3.02H131.608V13.58ZM146.081 12.964C146.535 12.964 146.924 13.1253 147.247 13.448C147.569 13.7707 147.731 14.1593 147.731 14.614C147.731 15.0687 147.569 15.4573 147.247 15.78C146.924 16.1027 146.535 16.264 146.081 16.264C145.626 16.264 145.237 16.1027 144.915 15.78C144.592 15.4573 144.431 15.0687 144.431 14.614C144.431 14.1593 144.585 13.7707 144.893 13.448C145.215 13.1253 145.611 12.964 146.081 12.964ZM154.569 16.286C152.912 16.286 151.526 15.7287 150.411 14.614C149.311 13.4847 148.761 12.1133 148.761 10.5C148.761 8.85733 149.311 7.486 150.411 6.386C151.526 5.27133 152.912 4.714 154.569 4.714C155.64 4.714 156.615 4.97067 157.495 5.484C158.375 5.99733 159.035 6.68667 159.475 7.552L157.429 8.74C157.18 8.212 156.799 7.80133 156.285 7.508C155.787 7.2 155.207 7.046 154.547 7.046C153.579 7.046 152.765 7.376 152.105 8.036C151.46 8.71067 151.137 9.532 151.137 10.5C151.137 11.468 151.46 12.2893 152.105 12.964C152.765 13.624 153.579 13.954 154.547 13.954C155.193 13.954 155.772 13.8073 156.285 13.514C156.813 13.206 157.209 12.788 157.473 12.26L159.519 13.426C159.05 14.306 158.368 15.0027 157.473 15.516C156.593 16.0293 155.625 16.286 154.569 16.286ZM170.371 14.614C169.256 15.7287 167.885 16.286 166.257 16.286C164.629 16.286 163.257 15.7287 162.143 14.614C161.013 13.4847 160.449 12.1133 160.449 10.5C160.449 8.88667 161.013 7.51533 162.143 6.386C163.257 5.27133 164.629 4.714 166.257 4.714C167.885 4.714 169.256 5.27133 170.371 6.386C171.5 7.51533 172.065 8.88667 172.065 10.5C172.065 12.1133 171.5 13.4847 170.371 14.614ZM162.825 10.5C162.825 11.4973 163.155 12.326 163.815 12.986C164.475 13.646 165.289 13.976 166.257 13.976C167.225 13.976 168.039 13.646 168.699 12.986C169.359 12.326 169.689 11.4973 169.689 10.5C169.689 9.50267 169.359 8.674 168.699 8.014C168.039 7.354 167.225 7.024 166.257 7.024C165.289 7.024 164.475 7.354 163.815 8.014C163.155 8.674 162.825 9.50267 162.825 10.5ZM186.225 4.714C187.472 4.714 188.476 5.11733 189.239 5.924C190.002 6.73067 190.383 7.816 190.383 9.18V16H188.007V9.334C188.007 8.586 187.816 7.99933 187.435 7.574C187.054 7.14867 186.533 6.936 185.873 6.936C185.125 6.936 184.538 7.18533 184.113 7.684C183.688 8.168 183.475 8.88667 183.475 9.84V16H181.099V9.334C181.099 8.57133 180.916 7.98467 180.549 7.574C180.197 7.14867 179.691 6.936 179.031 6.936C178.298 6.936 177.704 7.18533 177.249 7.684C176.809 8.18267 176.589 8.90133 176.589 9.84V16H174.213V5H176.589V6.32C177.293 5.24933 178.342 4.714 179.735 4.714C181.143 4.714 182.184 5.29333 182.859 6.452C183.578 5.29333 184.7 4.714 186.225 4.714Z" fill="black"/>
</svg>
