<svg width="25" height="24" viewBox="0 0 25 24" fill="none" xmlns="http://www.w3.org/2000/svg">
<path d="M6.18025 6.275H6.3H22.575H22.6948L22.6734 6.39283L21.536 12.6706C21.536 12.6707 21.5359 12.6707 21.5359 12.6708C21.4958 12.8967 21.3772 13.1011 21.2011 13.2482C21.0251 13.3953 20.8028 13.4756 20.5734 13.475C20.5733 13.475 20.5732 13.475 20.5731 13.475M6.18025 6.275L20.5734 13.375L20.5731 13.475M6.18025 6.275L6.2016 6.39283L7.47035 13.3928L7.48525 13.475H7.56875L20.5731 13.475M6.18025 6.275L20.5731 13.475M23.0563 12.9524L23.0563 12.9524C22.9504 13.5338 22.6439 14.0597 22.1902 14.4384C21.7366 14.8171 21.1644 15.0247 20.5734 15.025C20.5734 15.025 20.5734 15.025 20.5734 15.025H7.88594H7.76594L7.78758 15.143L8.26883 17.768L8.28386 17.85H8.36719H20.125C20.7669 17.85 21.3914 18.0586 21.9046 18.4442C22.4178 18.8299 22.7918 19.3718 22.9704 19.9883C23.1489 20.6049 23.1224 21.2628 22.8948 21.863C22.6672 22.4632 22.2508 22.9732 21.7083 23.3163C21.1657 23.6594 20.5264 23.817 19.8866 23.7654C19.2468 23.7138 18.641 23.4558 18.1605 23.0301C17.68 22.6045 17.3507 22.0343 17.2222 21.4054C17.0938 20.7765 17.1731 20.1228 17.4482 19.5429L17.5159 19.4H17.3578H11.5172H11.359L11.4269 19.5429C11.6631 20.0404 11.756 20.594 11.6951 21.1414C11.6342 21.6889 11.4219 22.2085 11.082 22.6419C10.7421 23.0753 10.288 23.4054 9.77093 23.5951C9.25381 23.7847 8.69405 23.8265 8.15452 23.7156C7.61498 23.6048 7.11704 23.3457 6.71661 22.9675C6.31617 22.5893 6.02911 22.1069 5.88765 21.5746C5.7462 21.0422 5.75595 20.481 5.91582 19.9539C6.07568 19.4268 6.37933 18.9547 6.79266 18.5907L6.83504 18.5533L6.82496 18.4978L3.82808 1.98215L3.81318 1.9H3.72969H1.75C1.54446 1.9 1.34733 1.81835 1.20199 1.67301C1.05665 1.52767 0.975 1.33054 0.975 1.125C0.975 0.919457 1.05665 0.722333 1.20199 0.576992C1.34733 0.431652 1.54446 0.35 1.75 0.35H3.72958C4.11465 0.350867 4.48729 0.486389 4.78296 0.733092C5.07865 0.979819 5.27873 1.32221 5.34853 1.70094L5.88443 4.64292L5.89938 4.725H5.98281H23.6248C23.7378 4.72523 23.8493 4.75051 23.9513 4.79901C24.0533 4.84751 24.1433 4.91802 24.2148 5.00548L24.2147 5.00553L24.2172 5.00839C24.2918 5.09281 24.3462 5.19309 24.3762 5.30164C24.4063 5.41019 24.4113 5.52416 24.3907 5.63491L24.3907 5.63518L23.0563 12.9524ZM9.92445 21.5972C10.0797 21.365 10.1625 21.0919 10.1625 20.8125C10.1625 20.4379 10.0137 20.0786 9.74879 19.8137C9.4839 19.5488 9.12462 19.4 8.75 19.4C8.47064 19.4 8.19754 19.4828 7.96526 19.6381C7.73297 19.7933 7.55193 20.0139 7.44502 20.272C7.33811 20.5301 7.31014 20.8141 7.36464 21.0881C7.41914 21.3621 7.55367 21.6137 7.75121 21.8113C7.94875 22.0088 8.20044 22.1434 8.47444 22.1979C8.74843 22.2524 9.03244 22.2244 9.29054 22.1175C9.54864 22.0106 9.76925 21.8295 9.92445 21.5972ZM21.2995 21.5972C21.4547 21.365 21.5375 21.0919 21.5375 20.8125C21.5375 20.4379 21.3887 20.0786 21.1238 19.8137C20.8589 19.5488 20.4996 19.4 20.125 19.4C19.8456 19.4 19.5725 19.4828 19.3403 19.6381C19.108 19.7933 18.9269 20.0139 18.82 20.272C18.7131 20.5301 18.6851 20.8141 18.7396 21.0881C18.7941 21.3621 18.9287 21.6137 19.1262 21.8113C19.3238 22.0088 19.5754 22.1434 19.8494 22.1979C20.1234 22.2524 20.4074 22.2244 20.6655 22.1175C20.9236 22.0106 21.1442 21.8295 21.2995 21.5972Z" fill="#DD052E" stroke="white" stroke-width="0.2"/>
</svg>
